# xmcd
#
# Track frame offsets:
# 150
# 15588
# 34429
# 47182
# 61423
# 80758
# 97442
# 112036
# 121984
# 137126
# 155281
# 176343
#
# Disc length: 2548 seconds
#
#
# Revision: 0
# Processed by: cddbd v1.5.2PL0 Copyright (c) Steve Scherf et al.
# Submitted via: FreeRIP 2.96 
#
DISCID=a909f20c
DTITLE=Modão Sertanejo - CD 2 - Modão Sertanejo - CD 2
DYEAR=2010
DGENRE=Sertanejo
TTITLE0=Cavalo Enxuto - Victor and Leo
TTITLE1=Amor De Primavera - Gustavo Lima
TTITLE2=Apaixonado - Adair Cardoso
TTITLE3=Nuvem De Lágrima - Luis Guilherme and Nadielly
TTITLE4=Cabocla Tereza - Léo Magalhães
TTITLE5=Pot-Pourri - Seu Coração Não Tem Dó Do Meu - Eu Hoje Entrego Os Pontos - Michel Teló
TTITLE6=Anjo Loiro - Tom and Arnaldo
TTITLE7=Essa Tal Moeda Forte - Roger and Rogério
TTITLE8=Decida - Carlos and Jader
TTITLE9=Na Hora Do Adeus - Jeann and Julio
TTITLE10=Pot-Pourri - Galopeira - Vá Pro inferno com seu amor - Pedaço De Poema - João Neto and Frederico
TTITLE11=Só Liguei Pra Dizer Que Te Amo - Marcos and Belutti
EXTD=Ano 2010 - M. P. A.
EXTT0=
EXTT1=
EXTT2=
EXTT3=
EXTT4=
EXTT5=
EXTT6=
EXTT7=
EXTT8=
EXTT9=
EXTT10=
EXTT11=
PLAYORDER=
